<svg xmlns="http://www.w3.org/2000/svg" width="1em" height="1em" viewBox="0 0 24 24"><path fill="currentColor" d="M5 18.235q1.35-1.325 3.138-2.088T12 15.385t3.863.762T19 18.235V5.615q0-.23-.192-.423T18.384 5H5.616q-.231 0-.424.192T5 5.616zm7-5.158q1.258 0 2.129-.871T15 10.077t-.871-2.129T12 7.077t-2.129.871T9 10.077t.871 2.129t2.129.871M5.616 20q-.691 0-1.153-.462T4 18.384V5.616q0-.691.463-1.153T5.616 4h12.769q.69 0 1.153.463T20 5.616v12.769q0 .69-.462 1.153T18.384 20zm.269-1h12.23v-.173q-1.319-1.24-2.873-1.841q-1.553-.601-3.242-.601q-1.65 0-3.213.591t-2.902 1.813zM12 12.077q-.817 0-1.409-.591Q10 10.894 10 10.077t.591-1.409q.592-.591 1.409-.591t1.409.591Q14 9.26 14 10.077t-.591 1.409t-1.409.591m0-.46"/></svg>
